<mxfile host="app.diagrams.net" modified="2023-08-24T13:58:37.473Z" agent="Mozilla/5.0 (Windows NT 10.0; Win64; x64) AppleWebKit/537.36 (KHTML, like Gecko) Chrome/114.0.0.0 Safari/537.36 OPR/100.0.0.0" etag="bvdTHCaROFsXS7EvcIYM" version="21.6.1" type="device">
  <diagram name="Page-1" id="7rseiD8iCOdv7jOn-9RP">
    <mxGraphModel dx="1009" dy="550" grid="1" gridSize="10" guides="1" tooltips="1" connect="1" arrows="1" fold="1" page="1" pageScale="1" pageWidth="850" pageHeight="1100" math="0" shadow="0">
      <root>
        <mxCell id="0" />
        <mxCell id="1" parent="0" />
        <mxCell id="Cki_jnxsvLWN4of_zz-I-8" style="edgeStyle=orthogonalEdgeStyle;rounded=0;orthogonalLoop=1;jettySize=auto;html=1;exitX=0;exitY=0.5;exitDx=0;exitDy=0;entryX=0.835;entryY=-0.04;entryDx=0;entryDy=0;entryPerimeter=0;endArrow=classic;endFill=1;fillColor=#e51400;strokeColor=#B20000;startArrow=none;startFill=0;" parent="1" source="Cki_jnxsvLWN4of_zz-I-13" target="EPHKaDc58YEOViVZHEt--62" edge="1">
          <mxGeometry relative="1" as="geometry">
            <mxPoint x="860" y="340" as="sourcePoint" />
          </mxGeometry>
        </mxCell>
        <mxCell id="Cki_jnxsvLWN4of_zz-I-9" style="edgeStyle=orthogonalEdgeStyle;rounded=0;orthogonalLoop=1;jettySize=auto;html=1;exitX=0.25;exitY=1;exitDx=0;exitDy=0;entryX=1;entryY=0.25;entryDx=0;entryDy=0;endArrow=none;endFill=0;fillColor=#e51400;strokeColor=#B20000;" parent="1" source="Cki_jnxsvLWN4of_zz-I-13" target="EPHKaDc58YEOViVZHEt--62" edge="1">
          <mxGeometry relative="1" as="geometry">
            <mxPoint x="900" y="390" as="sourcePoint" />
          </mxGeometry>
        </mxCell>
        <mxCell id="00oy2hvnTNmRL2k9P9-O-13" style="edgeStyle=orthogonalEdgeStyle;rounded=0;orthogonalLoop=1;jettySize=auto;html=1;exitX=0;exitY=0.5;exitDx=0;exitDy=0;entryX=0.99;entryY=-0.071;entryDx=0;entryDy=0;entryPerimeter=0;fillColor=#f8cecc;strokeColor=#B20000;startArrow=diamondThin;startFill=1;targetPerimeterSpacing=4;" edge="1" parent="1" source="EPHKaDc58YEOViVZHEt--62" target="00oy2hvnTNmRL2k9P9-O-10">
          <mxGeometry relative="1" as="geometry" />
        </mxCell>
        <mxCell id="00oy2hvnTNmRL2k9P9-O-35" style="edgeStyle=orthogonalEdgeStyle;rounded=0;orthogonalLoop=1;jettySize=auto;html=1;exitX=0.25;exitY=0;exitDx=0;exitDy=0;fillColor=#f8cecc;strokeColor=#B20000;endArrow=none;endFill=0;" edge="1" parent="1" source="EPHKaDc58YEOViVZHEt--62">
          <mxGeometry relative="1" as="geometry">
            <mxPoint x="280" y="340" as="targetPoint" />
            <Array as="points">
              <mxPoint x="680" y="360" />
              <mxPoint x="280" y="360" />
            </Array>
          </mxGeometry>
        </mxCell>
        <mxCell id="EPHKaDc58YEOViVZHEt--62" value="Branch" style="swimlane;fontStyle=1;align=center;verticalAlign=top;childLayout=stackLayout;horizontal=1;startSize=26;horizontalStack=0;resizeParent=1;resizeParentMax=0;resizeLast=0;collapsible=1;marginBottom=0;whiteSpace=wrap;html=1;fillColor=#f0a30a;fontColor=#000000;strokeColor=#BD7000;" parent="1" vertex="1">
          <mxGeometry x="640" y="415" width="160" height="60" as="geometry" />
        </mxCell>
        <mxCell id="EPHKaDc58YEOViVZHEt--63" value="name: string" style="text;strokeColor=#B09500;fillColor=#e3c800;align=left;verticalAlign=top;spacingLeft=4;spacingRight=4;overflow=hidden;rotatable=0;points=[[0,0.5],[1,0.5]];portConstraint=eastwest;whiteSpace=wrap;html=1;fontColor=#000000;" parent="EPHKaDc58YEOViVZHEt--62" vertex="1">
          <mxGeometry y="26" width="160" height="26" as="geometry" />
        </mxCell>
        <mxCell id="EPHKaDc58YEOViVZHEt--64" value="" style="line;strokeWidth=1;fillColor=none;align=left;verticalAlign=middle;spacingTop=-1;spacingLeft=3;spacingRight=3;rotatable=0;labelPosition=right;points=[];portConstraint=eastwest;strokeColor=inherit;" parent="EPHKaDc58YEOViVZHEt--62" vertex="1">
          <mxGeometry y="52" width="160" height="8" as="geometry" />
        </mxCell>
        <mxCell id="EPHKaDc58YEOViVZHEt--70" value="Commit" style="swimlane;fontStyle=1;align=center;verticalAlign=top;childLayout=stackLayout;horizontal=1;startSize=26;horizontalStack=0;resizeParent=1;resizeParentMax=0;resizeLast=0;collapsible=1;marginBottom=0;whiteSpace=wrap;html=1;fillColor=#f0a30a;fontColor=#000000;strokeColor=#BD7000;" parent="1" vertex="1">
          <mxGeometry x="640" y="592" width="160" height="88" as="geometry" />
        </mxCell>
        <mxCell id="EPHKaDc58YEOViVZHEt--71" value="date_time: DateTime&lt;br&gt;log_message: string&lt;br&gt;commiter: string" style="text;strokeColor=#B09500;fillColor=#e3c800;align=left;verticalAlign=top;spacingLeft=4;spacingRight=4;overflow=hidden;rotatable=0;points=[[0,0.5],[1,0.5]];portConstraint=eastwest;whiteSpace=wrap;html=1;fontColor=#000000;" parent="EPHKaDc58YEOViVZHEt--70" vertex="1">
          <mxGeometry y="26" width="160" height="54" as="geometry" />
        </mxCell>
        <mxCell id="EPHKaDc58YEOViVZHEt--72" value="" style="line;strokeWidth=1;fillColor=none;align=left;verticalAlign=middle;spacingTop=-1;spacingLeft=3;spacingRight=3;rotatable=0;labelPosition=right;points=[];portConstraint=eastwest;strokeColor=inherit;" parent="EPHKaDc58YEOViVZHEt--70" vertex="1">
          <mxGeometry y="80" width="160" height="8" as="geometry" />
        </mxCell>
        <mxCell id="EPHKaDc58YEOViVZHEt--74" value="Milestone" style="swimlane;fontStyle=1;align=center;verticalAlign=top;childLayout=stackLayout;horizontal=1;startSize=26;horizontalStack=0;resizeParent=1;resizeParentMax=0;resizeLast=0;collapsible=1;marginBottom=0;whiteSpace=wrap;html=1;fillColor=#f0a30a;fontColor=#000000;strokeColor=#BD7000;" parent="1" vertex="1">
          <mxGeometry x="80" y="460" width="160" height="98" as="geometry" />
        </mxCell>
        <mxCell id="EPHKaDc58YEOViVZHEt--75" value="title: string&lt;br&gt;description: string&lt;br&gt;due_date: Date&lt;br&gt;state: State" style="text;strokeColor=#B09500;fillColor=#e3c800;align=left;verticalAlign=top;spacingLeft=4;spacingRight=4;overflow=hidden;rotatable=0;points=[[0,0.5],[1,0.5]];portConstraint=eastwest;whiteSpace=wrap;html=1;fontColor=#000000;" parent="EPHKaDc58YEOViVZHEt--74" vertex="1">
          <mxGeometry y="26" width="160" height="64" as="geometry" />
        </mxCell>
        <mxCell id="EPHKaDc58YEOViVZHEt--76" value="" style="line;strokeWidth=1;fillColor=none;align=left;verticalAlign=middle;spacingTop=-1;spacingLeft=3;spacingRight=3;rotatable=0;labelPosition=right;points=[];portConstraint=eastwest;strokeColor=inherit;" parent="EPHKaDc58YEOViVZHEt--74" vertex="1">
          <mxGeometry y="90" width="160" height="8" as="geometry" />
        </mxCell>
        <mxCell id="00oy2hvnTNmRL2k9P9-O-8" style="edgeStyle=orthogonalEdgeStyle;rounded=0;orthogonalLoop=1;jettySize=auto;html=1;exitX=0;exitY=0.5;exitDx=0;exitDy=0;entryX=0.5;entryY=1;entryDx=0;entryDy=0;fillColor=#f8cecc;strokeColor=#B20000;startArrow=none;startFill=0;endArrow=classic;endFill=1;" edge="1" parent="1" source="EPHKaDc58YEOViVZHEt--78" target="EPHKaDc58YEOViVZHEt--82">
          <mxGeometry relative="1" as="geometry" />
        </mxCell>
        <mxCell id="EPHKaDc58YEOViVZHEt--78" value="GitUser" style="swimlane;fontStyle=1;align=center;verticalAlign=top;childLayout=stackLayout;horizontal=1;startSize=26;horizontalStack=0;resizeParent=1;resizeParentMax=0;resizeLast=0;collapsible=1;marginBottom=0;whiteSpace=wrap;html=1;fillColor=#f0a30a;fontColor=#000000;strokeColor=#BD7000;" parent="1" vertex="1">
          <mxGeometry x="420" y="960" width="160" height="34" as="geometry" />
        </mxCell>
        <mxCell id="EPHKaDc58YEOViVZHEt--80" value="" style="line;strokeWidth=1;fillColor=none;align=left;verticalAlign=middle;spacingTop=-1;spacingLeft=3;spacingRight=3;rotatable=0;labelPosition=right;points=[];portConstraint=eastwest;strokeColor=inherit;" parent="EPHKaDc58YEOViVZHEt--78" vertex="1">
          <mxGeometry y="26" width="160" height="8" as="geometry" />
        </mxCell>
        <mxCell id="EPHKaDc58YEOViVZHEt--82" value="Project" style="swimlane;fontStyle=1;align=center;verticalAlign=top;childLayout=stackLayout;horizontal=1;startSize=26;horizontalStack=0;resizeParent=1;resizeParentMax=0;resizeLast=0;collapsible=1;marginBottom=0;whiteSpace=wrap;html=1;fillColor=#f0a30a;fontColor=#000000;strokeColor=#BD7000;" parent="1" vertex="1">
          <mxGeometry x="170" y="104" width="160" height="60" as="geometry" />
        </mxCell>
        <mxCell id="EPHKaDc58YEOViVZHEt--83" value="title: string" style="text;align=left;verticalAlign=top;spacingLeft=4;spacingRight=4;overflow=hidden;rotatable=0;points=[[0,0.5],[1,0.5]];portConstraint=eastwest;whiteSpace=wrap;html=1;fillColor=#e3c800;fontColor=#000000;strokeColor=#B09500;" parent="EPHKaDc58YEOViVZHEt--82" vertex="1">
          <mxGeometry y="26" width="160" height="26" as="geometry" />
        </mxCell>
        <mxCell id="EPHKaDc58YEOViVZHEt--84" value="" style="line;strokeWidth=1;fillColor=none;align=left;verticalAlign=middle;spacingTop=-1;spacingLeft=3;spacingRight=3;rotatable=0;labelPosition=right;points=[];portConstraint=eastwest;strokeColor=inherit;" parent="EPHKaDc58YEOViVZHEt--82" vertex="1">
          <mxGeometry y="52" width="160" height="8" as="geometry" />
        </mxCell>
        <mxCell id="EPHKaDc58YEOViVZHEt--86" value="State" style="swimlane;fontStyle=1;align=center;verticalAlign=top;childLayout=stackLayout;horizontal=1;startSize=26;horizontalStack=0;resizeParent=1;resizeParentMax=0;resizeLast=0;collapsible=1;marginBottom=0;whiteSpace=wrap;html=1;fillColor=#f0a30a;fontColor=#000000;strokeColor=#BD7000;" parent="1" vertex="1">
          <mxGeometry x="620" y="140" width="160" height="88" as="geometry" />
        </mxCell>
        <mxCell id="EPHKaDc58YEOViVZHEt--87" value="OPEN&lt;br&gt;CLOSED&lt;br&gt;MERGED" style="text;align=left;verticalAlign=top;spacingLeft=4;spacingRight=4;overflow=hidden;rotatable=0;points=[[0,0.5],[1,0.5]];portConstraint=eastwest;whiteSpace=wrap;html=1;fillColor=#e3c800;strokeColor=#B09500;fontColor=#000000;" parent="EPHKaDc58YEOViVZHEt--86" vertex="1">
          <mxGeometry y="26" width="160" height="54" as="geometry" />
        </mxCell>
        <mxCell id="EPHKaDc58YEOViVZHEt--88" value="" style="line;strokeWidth=1;fillColor=none;align=left;verticalAlign=middle;spacingTop=-1;spacingLeft=3;spacingRight=3;rotatable=0;labelPosition=right;points=[];portConstraint=eastwest;strokeColor=inherit;" parent="EPHKaDc58YEOViVZHEt--86" vertex="1">
          <mxGeometry y="80" width="160" height="8" as="geometry" />
        </mxCell>
        <mxCell id="EPHKaDc58YEOViVZHEt--90" value="Issue" style="swimlane;fontStyle=1;align=center;verticalAlign=top;childLayout=stackLayout;horizontal=1;startSize=26;horizontalStack=0;resizeParent=1;resizeParentMax=0;resizeLast=0;collapsible=1;marginBottom=0;whiteSpace=wrap;html=1;fillColor=#f0a30a;fontColor=#000000;strokeColor=#BD7000;" parent="1" vertex="1">
          <mxGeometry x="870" y="640" width="160" height="98" as="geometry" />
        </mxCell>
        <mxCell id="EPHKaDc58YEOViVZHEt--91" value="title: string&lt;br&gt;description: string&lt;br&gt;state: State" style="text;strokeColor=#B09500;fillColor=#e3c800;align=left;verticalAlign=top;spacingLeft=4;spacingRight=4;overflow=hidden;rotatable=0;points=[[0,0.5],[1,0.5]];portConstraint=eastwest;whiteSpace=wrap;html=1;fontColor=#000000;" parent="EPHKaDc58YEOViVZHEt--90" vertex="1">
          <mxGeometry y="26" width="160" height="64" as="geometry" />
        </mxCell>
        <mxCell id="EPHKaDc58YEOViVZHEt--92" value="" style="line;strokeWidth=1;fillColor=none;align=left;verticalAlign=middle;spacingTop=-1;spacingLeft=3;spacingRight=3;rotatable=0;labelPosition=right;points=[];portConstraint=eastwest;strokeColor=inherit;" parent="EPHKaDc58YEOViVZHEt--90" vertex="1">
          <mxGeometry y="90" width="160" height="8" as="geometry" />
        </mxCell>
        <mxCell id="EPHKaDc58YEOViVZHEt--106" value="Comment" style="swimlane;fontStyle=1;align=center;verticalAlign=top;childLayout=stackLayout;horizontal=1;startSize=26;horizontalStack=0;resizeParent=1;resizeParentMax=0;resizeLast=0;collapsible=1;marginBottom=0;whiteSpace=wrap;html=1;fillColor=#f0a30a;fontColor=#000000;strokeColor=#BD7000;" parent="1" vertex="1">
          <mxGeometry x="410" y="630" width="160" height="78" as="geometry" />
        </mxCell>
        <mxCell id="00oy2hvnTNmRL2k9P9-O-29" style="edgeStyle=orthogonalEdgeStyle;rounded=0;orthogonalLoop=1;jettySize=auto;html=1;exitX=0;exitY=0.5;exitDx=0;exitDy=0;endArrow=none;endFill=0;fillColor=#f8cecc;strokeColor=#B20000;" edge="1" parent="EPHKaDc58YEOViVZHEt--106" source="EPHKaDc58YEOViVZHEt--107">
          <mxGeometry relative="1" as="geometry">
            <mxPoint x="-100" y="40" as="targetPoint" />
            <Array as="points">
              <mxPoint x="-45" y="48" />
              <mxPoint x="-45" y="49" />
            </Array>
          </mxGeometry>
        </mxCell>
        <mxCell id="EPHKaDc58YEOViVZHEt--107" value="text: string&lt;br&gt;last_update: Date" style="text;strokeColor=#B09500;fillColor=#e3c800;align=left;verticalAlign=top;spacingLeft=4;spacingRight=4;overflow=hidden;rotatable=0;points=[[0,0.5],[1,0.5]];portConstraint=eastwest;whiteSpace=wrap;html=1;fontColor=#000000;" parent="EPHKaDc58YEOViVZHEt--106" vertex="1">
          <mxGeometry y="26" width="160" height="44" as="geometry" />
        </mxCell>
        <mxCell id="EPHKaDc58YEOViVZHEt--108" value="" style="line;strokeWidth=1;fillColor=none;align=left;verticalAlign=middle;spacingTop=-1;spacingLeft=3;spacingRight=3;rotatable=0;labelPosition=right;points=[];portConstraint=eastwest;strokeColor=inherit;" parent="EPHKaDc58YEOViVZHEt--106" vertex="1">
          <mxGeometry y="70" width="160" height="8" as="geometry" />
        </mxCell>
        <mxCell id="EPHKaDc58YEOViVZHEt--131" value="&lt;font color=&quot;#b20000&quot;&gt;source&lt;/font&gt;" style="text;html=1;strokeColor=none;fillColor=none;align=center;verticalAlign=middle;whiteSpace=wrap;rounded=0;" parent="1" vertex="1">
          <mxGeometry x="810" y="405" width="40" height="20" as="geometry" />
        </mxCell>
        <mxCell id="EPHKaDc58YEOViVZHEt--132" value="&lt;font color=&quot;#b20000&quot;&gt;0..*&lt;/font&gt;" style="text;html=1;strokeColor=none;fillColor=none;align=center;verticalAlign=middle;whiteSpace=wrap;rounded=0;" parent="1" vertex="1">
          <mxGeometry x="650" y="380" width="20" height="10" as="geometry" />
        </mxCell>
        <mxCell id="EPHKaDc58YEOViVZHEt--133" value="&lt;font color=&quot;#b20000&quot;&gt;target&lt;/font&gt;" style="text;html=1;fillColor=none;align=center;verticalAlign=middle;whiteSpace=wrap;rounded=0;" parent="1" vertex="1">
          <mxGeometry x="730" y="380" width="40" height="20" as="geometry" />
        </mxCell>
        <mxCell id="EPHKaDc58YEOViVZHEt--137" value="&lt;font color=&quot;#b20000&quot;&gt;issue&lt;/font&gt;" style="text;html=1;strokeColor=none;fillColor=none;align=center;verticalAlign=middle;whiteSpace=wrap;rounded=0;" parent="1" vertex="1">
          <mxGeometry x="970" y="620" width="30" height="10" as="geometry" />
        </mxCell>
        <mxCell id="EPHKaDc58YEOViVZHEt--149" value="" style="endArrow=diamondThin;endFill=1;endSize=24;html=1;rounded=0;entryX=0.5;entryY=1;entryDx=0;entryDy=0;exitX=0.5;exitY=0;exitDx=0;exitDy=0;fillColor=#e51400;strokeColor=#B20000;" parent="1" source="EPHKaDc58YEOViVZHEt--70" target="EPHKaDc58YEOViVZHEt--62" edge="1">
          <mxGeometry width="160" relative="1" as="geometry">
            <mxPoint x="570" y="690" as="sourcePoint" />
            <mxPoint x="730" y="690" as="targetPoint" />
          </mxGeometry>
        </mxCell>
        <mxCell id="EPHKaDc58YEOViVZHEt--150" value="&lt;font color=&quot;#ff0000&quot;&gt;0..*&lt;/font&gt;" style="text;html=1;strokeColor=none;fillColor=none;align=center;verticalAlign=middle;whiteSpace=wrap;rounded=0;" parent="1" vertex="1">
          <mxGeometry x="690" y="570" width="20" height="10" as="geometry" />
        </mxCell>
        <mxCell id="EPHKaDc58YEOViVZHEt--154" value="" style="endArrow=none;endSize=16;endFill=0;html=1;rounded=0;exitX=0.5;exitY=1;exitDx=0;exitDy=0;entryX=1;entryY=0.5;entryDx=0;entryDy=0;fillColor=#e51400;strokeColor=#B20000;" parent="1" source="EPHKaDc58YEOViVZHEt--90" target="EPHKaDc58YEOViVZHEt--78" edge="1">
          <mxGeometry width="160" relative="1" as="geometry">
            <mxPoint x="710" y="610" as="sourcePoint" />
            <mxPoint x="570" y="917" as="targetPoint" />
            <Array as="points">
              <mxPoint x="950" y="977" />
            </Array>
          </mxGeometry>
        </mxCell>
        <mxCell id="EPHKaDc58YEOViVZHEt--168" value="" style="endArrow=diamondThin;endFill=1;endSize=24;html=1;rounded=0;entryX=0.25;entryY=1;entryDx=0;entryDy=0;exitX=0.75;exitY=0;exitDx=0;exitDy=0;fillColor=#e51400;strokeColor=#B20000;" parent="1" source="EPHKaDc58YEOViVZHEt--74" target="EPHKaDc58YEOViVZHEt--82" edge="1">
          <mxGeometry width="160" relative="1" as="geometry">
            <mxPoint x="480" y="300" as="sourcePoint" />
            <mxPoint x="640" y="300" as="targetPoint" />
          </mxGeometry>
        </mxCell>
        <mxCell id="EPHKaDc58YEOViVZHEt--169" value="&lt;font color=&quot;#b20000&quot;&gt;0..*&lt;/font&gt;" style="text;html=1;strokeColor=none;fillColor=none;align=center;verticalAlign=middle;whiteSpace=wrap;rounded=0;" parent="1" vertex="1">
          <mxGeometry x="170" y="440" width="20" height="10" as="geometry" />
        </mxCell>
        <mxCell id="EPHKaDc58YEOViVZHEt--176" value="" style="endArrow=none;html=1;rounded=0;fillColor=#e51400;strokeColor=#B20000;" parent="1" edge="1">
          <mxGeometry width="50" height="50" relative="1" as="geometry">
            <mxPoint x="990" y="1080" as="sourcePoint" />
            <mxPoint x="160" y="1080" as="targetPoint" />
          </mxGeometry>
        </mxCell>
        <mxCell id="EPHKaDc58YEOViVZHEt--190" value="&lt;font color=&quot;#b20000&quot;&gt;lead&lt;/font&gt;" style="text;html=1;strokeColor=none;fillColor=none;align=center;verticalAlign=middle;whiteSpace=wrap;rounded=0;" parent="1" vertex="1">
          <mxGeometry x="380" y="960" width="30" height="11" as="geometry" />
        </mxCell>
        <mxCell id="s-wb7J3EKv_jHrR0bMFX-2" value="&lt;font color=&quot;#b20000&quot;&gt;assignee&lt;/font&gt;" style="text;html=1;strokeColor=none;fillColor=none;align=center;verticalAlign=middle;whiteSpace=wrap;rounded=0;" parent="1" vertex="1">
          <mxGeometry x="580" y="984" width="80" height="10" as="geometry" />
        </mxCell>
        <mxCell id="Cki_jnxsvLWN4of_zz-I-17" style="edgeStyle=orthogonalEdgeStyle;rounded=0;orthogonalLoop=1;jettySize=auto;html=1;exitX=0.75;exitY=1;exitDx=0;exitDy=0;entryX=0.855;entryY=0.005;entryDx=0;entryDy=0;entryPerimeter=0;endArrow=classic;endFill=1;fillColor=#e51400;strokeColor=#B20000;startArrow=none;startFill=0;" parent="1" source="Cki_jnxsvLWN4of_zz-I-13" target="EPHKaDc58YEOViVZHEt--90" edge="1">
          <mxGeometry relative="1" as="geometry" />
        </mxCell>
        <mxCell id="00oy2hvnTNmRL2k9P9-O-5" style="edgeStyle=orthogonalEdgeStyle;rounded=0;orthogonalLoop=1;jettySize=auto;html=1;exitX=0.5;exitY=0;exitDx=0;exitDy=0;endArrow=none;endFill=0;fillColor=#f8cecc;strokeColor=#B20000;" edge="1" parent="1" source="Cki_jnxsvLWN4of_zz-I-13">
          <mxGeometry relative="1" as="geometry">
            <mxPoint x="280" y="70" as="targetPoint" />
            <Array as="points">
              <mxPoint x="970" y="60" />
              <mxPoint x="280" y="60" />
            </Array>
          </mxGeometry>
        </mxCell>
        <mxCell id="Cki_jnxsvLWN4of_zz-I-13" value="PullRequest" style="swimlane;fontStyle=1;align=center;verticalAlign=top;childLayout=stackLayout;horizontal=1;startSize=26;horizontalStack=0;resizeParent=1;resizeParentMax=0;resizeLast=0;collapsible=1;marginBottom=0;whiteSpace=wrap;html=1;fillColor=#f0a30a;fontColor=#000000;strokeColor=#BD7000;" parent="1" vertex="1">
          <mxGeometry x="890" y="280" width="160" height="88" as="geometry" />
        </mxCell>
        <mxCell id="Cki_jnxsvLWN4of_zz-I-14" value="title: string&lt;br style=&quot;border-color: var(--border-color);&quot;&gt;description: string&lt;br style=&quot;border-color: var(--border-color);&quot;&gt;state: State" style="text;strokeColor=#B09500;fillColor=#e3c800;align=left;verticalAlign=top;spacingLeft=4;spacingRight=4;overflow=hidden;rotatable=0;points=[[0,0.5],[1,0.5]];portConstraint=eastwest;whiteSpace=wrap;html=1;fontColor=#000000;" parent="Cki_jnxsvLWN4of_zz-I-13" vertex="1">
          <mxGeometry y="26" width="160" height="54" as="geometry" />
        </mxCell>
        <mxCell id="Cki_jnxsvLWN4of_zz-I-15" value="" style="line;strokeWidth=1;fillColor=none;align=left;verticalAlign=middle;spacingTop=-1;spacingLeft=3;spacingRight=3;rotatable=0;labelPosition=right;points=[];portConstraint=eastwest;strokeColor=inherit;" parent="Cki_jnxsvLWN4of_zz-I-13" vertex="1">
          <mxGeometry y="80" width="160" height="8" as="geometry" />
        </mxCell>
        <mxCell id="00oy2hvnTNmRL2k9P9-O-9" value="File" style="swimlane;fontStyle=1;align=center;verticalAlign=top;childLayout=stackLayout;horizontal=1;startSize=26;horizontalStack=0;resizeParent=1;resizeParentMax=0;resizeLast=0;collapsible=1;marginBottom=0;whiteSpace=wrap;html=1;fillColor=#f0a30a;strokeColor=#BD7000;fontColor=#000000;" vertex="1" parent="1">
          <mxGeometry x="390" y="420" width="160" height="68" as="geometry" />
        </mxCell>
        <mxCell id="00oy2hvnTNmRL2k9P9-O-10" value="title: string&lt;br&gt;text: string" style="text;strokeColor=#B09500;fillColor=#e3c800;align=left;verticalAlign=top;spacingLeft=4;spacingRight=4;overflow=hidden;rotatable=0;points=[[0,0.5],[1,0.5]];portConstraint=eastwest;whiteSpace=wrap;html=1;fontColor=#000000;" vertex="1" parent="00oy2hvnTNmRL2k9P9-O-9">
          <mxGeometry y="26" width="160" height="34" as="geometry" />
        </mxCell>
        <mxCell id="00oy2hvnTNmRL2k9P9-O-11" value="" style="line;strokeWidth=1;fillColor=none;align=left;verticalAlign=middle;spacingTop=-1;spacingLeft=3;spacingRight=3;rotatable=0;labelPosition=right;points=[];portConstraint=eastwest;strokeColor=inherit;" vertex="1" parent="00oy2hvnTNmRL2k9P9-O-9">
          <mxGeometry y="60" width="160" height="8" as="geometry" />
        </mxCell>
        <mxCell id="00oy2hvnTNmRL2k9P9-O-16" value="" style="endArrow=none;html=1;rounded=0;exitX=0.75;exitY=1;exitDx=0;exitDy=0;fillColor=#f8cecc;strokeColor=#B20000;" edge="1" parent="1" source="EPHKaDc58YEOViVZHEt--90">
          <mxGeometry width="50" height="50" relative="1" as="geometry">
            <mxPoint x="580" y="800" as="sourcePoint" />
            <mxPoint x="990" y="1080" as="targetPoint" />
          </mxGeometry>
        </mxCell>
        <mxCell id="00oy2hvnTNmRL2k9P9-O-31" style="edgeStyle=orthogonalEdgeStyle;rounded=0;orthogonalLoop=1;jettySize=auto;html=1;exitX=0.5;exitY=1;exitDx=0;exitDy=0;entryX=0.442;entryY=0.059;entryDx=0;entryDy=0;entryPerimeter=0;fillColor=#f8cecc;strokeColor=#B20000;endArrow=none;endFill=0;" edge="1" parent="1" source="00oy2hvnTNmRL2k9P9-O-17" target="EPHKaDc58YEOViVZHEt--78">
          <mxGeometry relative="1" as="geometry" />
        </mxCell>
        <mxCell id="00oy2hvnTNmRL2k9P9-O-17" value="Reaction" style="swimlane;fontStyle=1;align=center;verticalAlign=top;childLayout=stackLayout;horizontal=1;startSize=26;horizontalStack=0;resizeParent=1;resizeParentMax=0;resizeLast=0;collapsible=1;marginBottom=0;whiteSpace=wrap;html=1;fillColor=#f0a30a;fontColor=#000000;strokeColor=#BD7000;" vertex="1" parent="1">
          <mxGeometry x="410" y="820" width="160" height="60" as="geometry" />
        </mxCell>
        <mxCell id="00oy2hvnTNmRL2k9P9-O-18" value="type: ReactionType" style="text;strokeColor=#B09500;fillColor=#e3c800;align=left;verticalAlign=top;spacingLeft=4;spacingRight=4;overflow=hidden;rotatable=0;points=[[0,0.5],[1,0.5]];portConstraint=eastwest;whiteSpace=wrap;html=1;fontColor=#000000;" vertex="1" parent="00oy2hvnTNmRL2k9P9-O-17">
          <mxGeometry y="26" width="160" height="26" as="geometry" />
        </mxCell>
        <mxCell id="00oy2hvnTNmRL2k9P9-O-19" value="" style="line;strokeWidth=1;fillColor=none;align=left;verticalAlign=middle;spacingTop=-1;spacingLeft=3;spacingRight=3;rotatable=0;labelPosition=right;points=[];portConstraint=eastwest;strokeColor=inherit;" vertex="1" parent="00oy2hvnTNmRL2k9P9-O-17">
          <mxGeometry y="52" width="160" height="8" as="geometry" />
        </mxCell>
        <mxCell id="00oy2hvnTNmRL2k9P9-O-21" value="ReactionType" style="swimlane;fontStyle=1;align=center;verticalAlign=top;childLayout=stackLayout;horizontal=1;startSize=26;horizontalStack=0;resizeParent=1;resizeParentMax=0;resizeLast=0;collapsible=1;marginBottom=0;whiteSpace=wrap;html=1;fillColor=#f0a30a;fontColor=#000000;strokeColor=#BD7000;" vertex="1" parent="1">
          <mxGeometry x="400" y="150" width="160" height="68" as="geometry" />
        </mxCell>
        <mxCell id="00oy2hvnTNmRL2k9P9-O-22" value="LIKE&lt;br&gt;DISLIKE" style="text;strokeColor=#B09500;fillColor=#e3c800;align=left;verticalAlign=top;spacingLeft=4;spacingRight=4;overflow=hidden;rotatable=0;points=[[0,0.5],[1,0.5]];portConstraint=eastwest;whiteSpace=wrap;html=1;fontColor=#000000;" vertex="1" parent="00oy2hvnTNmRL2k9P9-O-21">
          <mxGeometry y="26" width="160" height="34" as="geometry" />
        </mxCell>
        <mxCell id="00oy2hvnTNmRL2k9P9-O-23" value="" style="line;strokeWidth=1;fillColor=none;align=left;verticalAlign=middle;spacingTop=-1;spacingLeft=3;spacingRight=3;rotatable=0;labelPosition=right;points=[];portConstraint=eastwest;strokeColor=inherit;" vertex="1" parent="00oy2hvnTNmRL2k9P9-O-21">
          <mxGeometry y="60" width="160" height="8" as="geometry" />
        </mxCell>
        <mxCell id="00oy2hvnTNmRL2k9P9-O-28" value="" style="endArrow=diamondThin;endFill=1;endSize=24;html=1;rounded=0;fillColor=#f8cecc;strokeColor=#B20000;" edge="1" parent="1">
          <mxGeometry width="160" relative="1" as="geometry">
            <mxPoint x="310" y="674" as="sourcePoint" />
            <mxPoint x="310" y="164" as="targetPoint" />
          </mxGeometry>
        </mxCell>
        <mxCell id="00oy2hvnTNmRL2k9P9-O-30" value="&lt;font color=&quot;#b20000&quot;&gt;0..*&lt;/font&gt;" style="text;html=1;strokeColor=none;fillColor=none;align=center;verticalAlign=middle;whiteSpace=wrap;rounded=0;" vertex="1" parent="1">
          <mxGeometry x="380" y="664" width="20" height="10" as="geometry" />
        </mxCell>
        <mxCell id="00oy2hvnTNmRL2k9P9-O-32" value="&lt;font color=&quot;#b20000&quot;&gt;user&lt;/font&gt;" style="text;html=1;strokeColor=none;fillColor=none;align=center;verticalAlign=middle;whiteSpace=wrap;rounded=0;" vertex="1" parent="1">
          <mxGeometry x="490" y="940" width="40" height="10" as="geometry" />
        </mxCell>
        <mxCell id="00oy2hvnTNmRL2k9P9-O-33" value="" style="endArrow=diamondThin;endFill=1;endSize=24;html=1;rounded=0;fillColor=#f8cecc;strokeColor=#B20000;exitX=0.5;exitY=0;exitDx=0;exitDy=0;entryX=0.5;entryY=1;entryDx=0;entryDy=0;" edge="1" parent="1" source="00oy2hvnTNmRL2k9P9-O-17" target="EPHKaDc58YEOViVZHEt--106">
          <mxGeometry width="160" relative="1" as="geometry">
            <mxPoint x="350" y="1220.5" as="sourcePoint" />
            <mxPoint x="480" y="711" as="targetPoint" />
          </mxGeometry>
        </mxCell>
        <mxCell id="00oy2hvnTNmRL2k9P9-O-34" value="" style="endArrow=diamondThin;endFill=1;endSize=24;html=1;rounded=0;fillColor=#f8cecc;strokeColor=#B20000;entryX=0.68;entryY=0.85;entryDx=0;entryDy=0;entryPerimeter=0;" edge="1" parent="1" target="EPHKaDc58YEOViVZHEt--84">
          <mxGeometry width="160" relative="1" as="geometry">
            <mxPoint x="280" y="340" as="sourcePoint" />
            <mxPoint x="280" y="170" as="targetPoint" />
          </mxGeometry>
        </mxCell>
        <mxCell id="00oy2hvnTNmRL2k9P9-O-36" style="edgeStyle=orthogonalEdgeStyle;rounded=0;orthogonalLoop=1;jettySize=auto;html=1;exitX=1;exitY=0.5;exitDx=0;exitDy=0;fillColor=#f8cecc;strokeColor=#B20000;endArrow=none;endFill=0;" edge="1" parent="1" source="EPHKaDc58YEOViVZHEt--91">
          <mxGeometry relative="1" as="geometry">
            <mxPoint x="200" y="30" as="targetPoint" />
            <Array as="points">
              <mxPoint x="1080" y="698" />
              <mxPoint x="1080" y="30" />
            </Array>
          </mxGeometry>
        </mxCell>
        <mxCell id="00oy2hvnTNmRL2k9P9-O-38" value="" style="endArrow=diamondThin;endFill=1;endSize=24;html=1;rounded=0;entryX=0.18;entryY=0.047;entryDx=0;entryDy=0;entryPerimeter=0;fillColor=#f8cecc;strokeColor=#B20000;" edge="1" parent="1" target="EPHKaDc58YEOViVZHEt--82">
          <mxGeometry width="160" relative="1" as="geometry">
            <mxPoint x="200" y="30" as="sourcePoint" />
            <mxPoint x="690" y="200" as="targetPoint" />
          </mxGeometry>
        </mxCell>
        <mxCell id="00oy2hvnTNmRL2k9P9-O-39" value="&lt;font color=&quot;#b20000&quot;&gt;0..*&lt;/font&gt;" style="text;html=1;strokeColor=none;fillColor=none;align=center;verticalAlign=middle;whiteSpace=wrap;rounded=0;" vertex="1" parent="1">
          <mxGeometry x="1040" y="680" width="20" height="10" as="geometry" />
        </mxCell>
        <mxCell id="00oy2hvnTNmRL2k9P9-O-44" value="" style="endArrow=diamondThin;endFill=1;endSize=24;html=1;rounded=0;entryX=0.68;entryY=0.047;entryDx=0;entryDy=0;entryPerimeter=0;fillColor=#f8cecc;strokeColor=#B20000;" edge="1" parent="1" target="EPHKaDc58YEOViVZHEt--82">
          <mxGeometry width="160" relative="1" as="geometry">
            <mxPoint x="280" y="70" as="sourcePoint" />
            <mxPoint x="640" y="100" as="targetPoint" />
          </mxGeometry>
        </mxCell>
        <mxCell id="00oy2hvnTNmRL2k9P9-O-45" value="&lt;font color=&quot;#b20000&quot;&gt;0..*&lt;/font&gt;" style="text;html=1;strokeColor=none;fillColor=none;align=center;verticalAlign=middle;whiteSpace=wrap;rounded=0;" vertex="1" parent="1">
          <mxGeometry x="940" y="250" width="20" height="10" as="geometry" />
        </mxCell>
        <mxCell id="00oy2hvnTNmRL2k9P9-O-46" value="" style="endArrow=diamondThin;endFill=1;endSize=24;html=1;rounded=0;entryX=0.5;entryY=1;entryDx=0;entryDy=0;fillColor=#ffe6cc;strokeColor=#B20000;" edge="1" parent="1" target="EPHKaDc58YEOViVZHEt--74">
          <mxGeometry width="160" relative="1" as="geometry">
            <mxPoint x="160" y="1080" as="sourcePoint" />
            <mxPoint x="690" y="800" as="targetPoint" />
          </mxGeometry>
        </mxCell>
      </root>
    </mxGraphModel>
  </diagram>
</mxfile>
